<svg id="visual" viewBox="0 0 675 900" width="675" height="900" xmlns="http://www.w3.org/2000/svg" xmlns:xlink="http://www.w3.org/1999/xlink" version="1.1"><rect x="0" y="0" width="675" height="900" fill="#FFFFFF"></rect><path d="M301 900L330.5 862.5C360 825 419 750 414.5 675C410 600 342 525 314.3 450C286.7 375 299.3 300 339.8 225C380.3 150 448.7 75 482.8 37.5L517 0L675 0L675 37.5C675 75 675 150 675 225C675 300 675 375 675 450C675 525 675 600 675 675C675 750 675 825 675 862.5L675 900Z" fill="#FC5579" stroke-linecap="round" stroke-linejoin="miter"></path></svg>